STARTFONT 2.1
FONT -FontForge-Nimbus Sans L-Bold-R-Normal--16-150-75-75-P-100-ISO10646-1
SIZE 15 75 75
FONTBOUNDINGBOX 19 23 -2 -5
COMMENT "Generated by fontforge, http://fontforge.sourceforge.net"
COMMENT "Copyright (URW)++,Copyright 2014 by (URW)++ Design & Development"
STARTPROPERTIES 40
FOUNDRY "FontForge"
FAMILY_NAME "Nimbus Sans L"
WEIGHT_NAME "Bold"
SLANT "R"
SETWIDTH_NAME "Normal"
ADD_STYLE_NAME ""
PIXEL_SIZE 16
POINT_SIZE 150
RESOLUTION_X 75
RESOLUTION_Y 75
SPACING "P"
AVERAGE_WIDTH 100
CHARSET_REGISTRY "ISO10646"
CHARSET_ENCODING "1"
FONTNAME_REGISTRY ""
CHARSET_COLLECTIONS "ASCII ISOLatin1Encoding ISO8859-2 ISO8859-5 ISO8859-7 ISO8859-9 ISO8859-4 ISO10646-1"
FONT_NAME "NimbusSanL-Bol"
FACE_NAME "Nimbus Sans L Bold"
COPYRIGHT "Copyright (URW)++,Copyright 2014 by (URW)++ Design & Development"
FONT_VERSION "1.00"
FONT_ASCENT 12
FONT_DESCENT 4
UNDERLINE_POSITION -2
UNDERLINE_THICKNESS 2
X_HEIGHT 8
CAP_HEIGHT 11
RAW_ASCENT 729
RAW_DESCENT 271
NORM_SPACE 4
RELATIVE_WEIGHT 70
RELATIVE_SETWIDTH 50
SUPERSCRIPT_X 0
SUPERSCRIPT_Y 5
SUPERSCRIPT_SIZE 9
SUBSCRIPT_X 0
SUBSCRIPT_Y 1
SUBSCRIPT_SIZE 9
FIGURE_WIDTH 9
AVG_LOWERCASE_WIDTH 90
AVG_UPPERCASE_WIDTH 113
ENDPROPERTIES
CHARS 759
STARTCHAR space
ENCODING 32
SWIDTH 278 0
DWIDTH 4 0
BBX 1 1 0 0
BITMAP
00
ENDCHAR
STARTCHAR exclam
ENCODING 33
SWIDTH 333 0
DWIDTH 5 0
BBX 2 12 2 0
BITMAP
C0
C0
C0
C0
C0
C0
C0
C0
C0
00
C0
C0
ENDCHAR
STARTCHAR quotedbl
ENCODING 34
SWIDTH 474 0
DWIDTH 8 0
BBX 6 4 1 8
BITMAP
CC
CC
CC
C8
ENDCHAR
STARTCHAR numbersign
ENCODING 35
SWIDTH 556 0
DWIDTH 9 0
BBX 9 11 0 0
BITMAP
1300
1300
FF80
FF80
3600
2600
FF00
FF00
6400
6C00
4C00
ENDCHAR
STARTCHAR dollar
ENCODING 36
SWIDTH 556 0
DWIDTH 9 0
BBX 8 14 0 -2
BITMAP
08
3E
6B
6B
68
78
3E
0F
0B
EB
6F
3E
08
08
ENDCHAR
STARTCHAR percent
ENCODING 37
SWIDTH 889 0
DWIDTH 14 0
BBX 14 12 0 0
BITMAP
3860
7C40
C4C0
C480
7D00
3900
0278
02F8
04CC
04CC
08F8
0878
ENDCHAR
STARTCHAR ampersand
ENCODING 38
SWIDTH 722 0
DWIDTH 12 0
BBX 10 12 1 0
BITMAP
3C00
7E00
6600
7600
3C00
3800
7D80
CF80
C780
C700
FF80
3DC0
ENDCHAR
STARTCHAR quotesingle
ENCODING 39
SWIDTH 238 0
DWIDTH 4 0
BBX 2 4 1 8
BITMAP
C0
C0
C0
C0
ENDCHAR
STARTCHAR parenleft
ENCODING 40
SWIDTH 333 0
DWIDTH 5 0
BBX 4 15 1 -3
BITMAP
30
60
60
C0
C0
C0
C0
C0
C0
C0
C0
C0
60
60
30
ENDCHAR
STARTCHAR parenright
ENCODING 41
SWIDTH 333 0
DWIDTH 5 0
BBX 4 15 1 -3
BITMAP
80
C0
40
60
60
60
30
30
20
60
60
60
C0
C0
80
ENDCHAR
STARTCHAR asterisk
ENCODING 42
SWIDTH 389 0
DWIDTH 6 0
BBX 4 5 1 7
BITMAP
60
60
F0
60
90
ENDCHAR
STARTCHAR plus
ENCODING 43
SWIDTH 584 0
DWIDTH 9 0
BBX 8 8 1 0
BITMAP
18
18
18
FF
FF
18
18
18
ENDCHAR
STARTCHAR comma
ENCODING 44
SWIDTH 278 0
DWIDTH 4 0
BBX 2 5 1 -3
BITMAP
C0
C0
40
40
80
ENDCHAR
STARTCHAR hyphen
ENCODING 45
SWIDTH 333 0
DWIDTH 5 0
BBX 5 2 0 3
BITMAP
F8
F8
ENDCHAR
STARTCHAR period
ENCODING 46
SWIDTH 278 0
DWIDTH 4 0
BBX 2 2 1 0
BITMAP
C0
C0
ENDCHAR
STARTCHAR slash
ENCODING 47
SWIDTH 278 0
DWIDTH 4 0
BBX 4 12 0 0
BITMAP
10
10
10
30
20
20
20
40
40
40
C0
80
ENDCHAR
STARTCHAR zero
ENCODING 48
SWIDTH 556 0
DWIDTH 9 0
BBX 8 12 0 0
BITMAP
3C
7E
63
63
63
E3
E3
63
63
67
7E
3C
ENDCHAR
STARTCHAR one
ENCODING 49
SWIDTH 556 0
DWIDTH 9 0
BBX 5 11 1 0
BITMAP
18
38
F8
18
18
18
18
18
18
18
18
ENDCHAR
STARTCHAR two
ENCODING 50
SWIDTH 556 0
DWIDTH 9 0
BBX 7 12 1 0
BITMAP
78
FE
C6
C6
06
0E
1C
38
70
E0
FE
FE
ENDCHAR
STARTCHAR three
ENCODING 51
SWIDTH 556 0
DWIDTH 9 0
BBX 8 12 0 0
BITMAP
3C
7E
67
63
07
1C
1F
03
E3
63
7F
3C
ENDCHAR
STARTCHAR four
ENCODING 52
SWIDTH 556 0
DWIDTH 9 0
BBX 8 11 0 0
BITMAP
0E
0E
1E
36
26
66
46
FF
FF
06
06
ENDCHAR
STARTCHAR five
ENCODING 53
SWIDTH 556 0
DWIDTH 9 0
BBX 7 12 1 0
BITMAP
7E
7E
C0
C0
FC
FE
C6
06
06
C6
FC
78
ENDCHAR
STARTCHAR six
ENCODING 54
SWIDTH 556 0
DWIDTH 9 0
BBX 7 12 1 0
BITMAP
3C
7E
C6
C0
D8
FE
C6
C6
C6
C6
FE
38
ENDCHAR
STARTCHAR seven
ENCODING 55
SWIDTH 556 0
DWIDTH 9 0
BBX 8 12 0 0
BITMAP
FF
FF
03
06
0E
0C
1C
18
18
18
38
30
ENDCHAR
STARTCHAR eight
ENCODING 56
SWIDTH 556 0
DWIDTH 9 0
BBX 8 12 0 0
BITMAP
3C
7F
63
63
63
3E
7F
E3
E3
E3
7F
3E
ENDCHAR
STARTCHAR nine
ENCODING 57
SWIDTH 556 0
DWIDTH 9 0
BBX 8 12 0 0
BITMAP
3C
7E
63
E3
E3
63
7F
3B
03
67
7E
3C
ENDCHAR
STARTCHAR colon
ENCODING 58
SWIDTH 333 0
DWIDTH 5 0
BBX 2 8 2 0
BITMAP
C0
C0
00
00
00
00
C0
C0
ENDCHAR
STARTCHAR semicolon
ENCODING 59
SWIDTH 333 0
DWIDTH 5 0
BBX 2 11 2 -3
BITMAP
C0
C0
00
00
00
00
C0
C0
40
40
80
ENDCHAR
STARTCHAR less
ENCODING 60
SWIDTH 584 0
DWIDTH 9 0
BBX 7 7 1 0
BITMAP
0E
7C
E0
C0
78
1E
02
ENDCHAR
STARTCHAR equal
ENCODING 61
SWIDTH 584 0
DWIDTH 9 0
BBX 8 6 1 1
BITMAP
FF
FF
00
00
FF
FF
ENDCHAR
STARTCHAR greater
ENCODING 62
SWIDTH 584 0
DWIDTH 9 0
BBX 7 7 1 0
BITMAP
E0
7C
0E
06
3C
F0
80
ENDCHAR
STARTCHAR question
ENCODING 63
SWIDTH 611 0
DWIDTH 10 0
BBX 8 12 1 0
BITMAP
3C
7E
E7
C3
03
06
0C
18
18
00
18
18
ENDCHAR
STARTCHAR at
ENCODING 64
SWIDTH 975 0
DWIDTH 16 0
BBX 15 14 0 -2
BITMAP
07E0
0C38
180C
3004
63F6
4662
4422
CC62
CC46
4CEC
6738
3000
1800
0FF0
ENDCHAR
STARTCHAR A
ENCODING 65
SWIDTH 722 0
DWIDTH 12 0
BBX 10 12 1 0
BITMAP
1C00
1E00
1E00
3E00
3700
3300
7300
6380
7F80
FF80
C1C0
C0C0
ENDCHAR
STARTCHAR B
ENCODING 66
SWIDTH 722 0
DWIDTH 12 0
BBX 10 12 1 0
BITMAP
FF00
FF80
E180
E180
E180
FF00
FF80
E180
E1C0
E1C0
FF80
FF00
ENDCHAR
STARTCHAR C
ENCODING 67
SWIDTH 722 0
DWIDTH 12 0
BBX 10 12 1 0
BITMAP
1E00
7F80
71C0
E1C0
C000
C000
C000
C000
E1C0
61C0
7F80
1E00
ENDCHAR
STARTCHAR D
ENCODING 68
SWIDTH 722 0
DWIDTH 12 0
BBX 10 12 1 0
BITMAP
FE00
FF80
E380
E1C0
E1C0
E1C0
E1C0
E1C0
E1C0
E380
FF80
FE00
ENDCHAR
STARTCHAR E
ENCODING 69
SWIDTH 667 0
DWIDTH 11 0
BBX 9 12 1 0
BITMAP
FF80
FF80
E000
E000
E000
FF00
FF00
E000
E000
E000
FF80
FF80
ENDCHAR
STARTCHAR F
ENCODING 70
SWIDTH 611 0
DWIDTH 10 0
BBX 8 12 1 0
BITMAP
FF
FF
E0
E0
E0
FF
FF
E0
E0
E0
E0
E0
ENDCHAR
STARTCHAR G
ENCODING 71
SWIDTH 778 0
DWIDTH 12 0
BBX 10 12 1 0
BITMAP
1F00
7F80
71C0
E0C0
C000
C3C0
C3C0
C0C0
E0C0
71C0
7F40
1E40
ENDCHAR
STARTCHAR H
ENCODING 72
SWIDTH 722 0
DWIDTH 12 0
BBX 10 12 1 0
BITMAP
C1C0
C1C0
C1C0
C1C0
C1C0
FFC0
FFC0
C1C0
C1C0
C1C0
C1C0
C1C0
ENDCHAR
STARTCHAR I
ENCODING 73
SWIDTH 278 0
DWIDTH 4 0
BBX 2 12 1 0
BITMAP
C0
C0
C0
C0
C0
C0
C0
C0
C0
C0
C0
C0
ENDCHAR
STARTCHAR J
ENCODING 74
SWIDTH 556 0
DWIDTH 9 0
BBX 8 12 0 0
BITMAP
07
07
07
07
07
07
07
E7
E7
E7
7E
3C
ENDCHAR
STARTCHAR K
ENCODING 75
SWIDTH 722 0
DWIDTH 12 0
BBX 10 12 1 0
BITMAP
E1C0
E380
E700
EE00
FC00
FC00
FC00
EE00
E700
E380
E180
E1C0
ENDCHAR
STARTCHAR L
ENCODING 76
SWIDTH 611 0
DWIDTH 10 0
BBX 8 12 1 0
BITMAP
E0
E0
E0
E0
E0
E0
E0
E0
E0
E0
FF
FF
ENDCHAR
STARTCHAR M
ENCODING 77
SWIDTH 833 0
DWIDTH 13 0
BBX 11 12 1 0
BITMAP
F0E0
F1E0
F1E0
D1E0
D9E0
D960
DB60
CB60
CF60
CF60
CE60
CE60
ENDCHAR
STARTCHAR N
ENCODING 78
SWIDTH 722 0
DWIDTH 12 0
BBX 10 12 1 0
BITMAP
E1C0
E1C0
F1C0
F9C0
D9C0
DDC0
CDC0
C7C0
C7C0
C3C0
C3C0
C1C0
ENDCHAR
STARTCHAR O
ENCODING 79
SWIDTH 778 0
DWIDTH 12 0
BBX 11 12 1 0
BITMAP
1F00
7F80
71C0
E0C0
C0E0
C0E0
C0E0
C0E0
E0C0
71C0
7F80
1F00
ENDCHAR
STARTCHAR P
ENCODING 80
SWIDTH 667 0
DWIDTH 11 0
BBX 9 12 1 0
BITMAP
FF00
FF80
E380
E180
E180
E380
FF00
FE00
E000
E000
E000
E000
ENDCHAR
STARTCHAR Q
ENCODING 81
SWIDTH 778 0
DWIDTH 12 0
BBX 11 12 1 0
BITMAP
1F00
7F80
71C0
E0C0
C0E0
C0E0
C0E0
C2E0
E7C0
71C0
7FC0
1F60
ENDCHAR
STARTCHAR R
ENCODING 82
SWIDTH 722 0
DWIDTH 12 0
BBX 10 12 1 0
BITMAP
FF00
FF80
E1C0
E1C0
E180
FF80
FF80
E180
E180
E180
E180
E1C0
ENDCHAR
STARTCHAR S
ENCODING 83
SWIDTH 667 0
DWIDTH 11 0
BBX 9 12 1 0
BITMAP
3E00
FF00
C380
C380
E000
FE00
1F80
0380
C180
C380
FF00
3E00
ENDCHAR
STARTCHAR T
ENCODING 84
SWIDTH 611 0
DWIDTH 10 0
BBX 10 12 0 0
BITMAP
FFC0
FFC0
0C00
0C00
0C00
0C00
0C00
0C00
0C00
0C00
0C00
0C00
ENDCHAR
STARTCHAR U
ENCODING 85
SWIDTH 722 0
DWIDTH 12 0
BBX 9 12 1 0
BITMAP
E180
E180
E180
E180
E180
E180
E180
E180
E180
E380
7F80
3E00
ENDCHAR
STARTCHAR V
ENCODING 86
SWIDTH 667 0
DWIDTH 11 0
BBX 9 12 1 0
BITMAP
C180
C180
E380
6300
6300
6700
3600
3600
3600
3C00
1C00
1C00
ENDCHAR
STARTCHAR W
ENCODING 87
SWIDTH 944 0
DWIDTH 15 0
BBX 15 12 0 0
BITMAP
E38E
638E
638C
628C
76DC
36D8
36D8
3658
1478
1C70
1C70
1C70
ENDCHAR
STARTCHAR X
ENCODING 88
SWIDTH 667 0
DWIDTH 11 0
BBX 9 12 1 0
BITMAP
E380
E300
7700
3600
3E00
1C00
1C00
3E00
7600
6700
E380
C380
ENDCHAR
STARTCHAR Y
ENCODING 89
SWIDTH 667 0
DWIDTH 11 0
BBX 9 12 1 0
BITMAP
C380
E380
6300
7700
3600
3E00
1C00
1C00
1C00
1C00
1C00
1C00
ENDCHAR
STARTCHAR Z
ENCODING 90
SWIDTH 611 0
DWIDTH 10 0
BBX 9 12 0 0
BITMAP
FF80
FF80
0380
0700
0600
0E00
1C00
3800
3000
7000
FF80
FF80
ENDCHAR
STARTCHAR bracketleft
ENCODING 91
SWIDTH 333 0
DWIDTH 5 0
BBX 4 15 1 -3
BITMAP
F0
F0
C0
C0
C0
C0
C0
C0
C0
C0
C0
C0
C0
F0
F0
ENDCHAR
STARTCHAR backslash
ENCODING 92
SWIDTH 278 0
DWIDTH 4 0
BBX 4 12 0 0
BITMAP
80
80
C0
40
40
60
20
20
20
10
10
10
ENDCHAR
STARTCHAR bracketright
ENCODING 93
SWIDTH 333 0
DWIDTH 5 0
BBX 4 15 0 -3
BITMAP
F0
F0
30
30
30
30
30
30
30
30
30
30
30
F0
F0
ENDCHAR
STARTCHAR asciicircum
ENCODING 94
SWIDTH 584 0
DWIDTH 9 0
BBX 7 7 1 4
BITMAP
38
38
2C
6C
64
C6
C6
ENDCHAR
STARTCHAR underscore
ENCODING 95
SWIDTH 556 0
DWIDTH 9 0
BBX 9 1 0 -3
BITMAP
FF80
ENDCHAR
STARTCHAR grave
ENCODING 96
SWIDTH 333 0
DWIDTH 5 0
BBX 2 2 1 10
BITMAP
C0
40
ENDCHAR
STARTCHAR a
ENCODING 97
SWIDTH 556 0
DWIDTH 9 0
BBX 8 9 0 0
BITMAP
3E
7F
63
07
7F
63
E7
7F
7B
ENDCHAR
STARTCHAR b
ENCODING 98
SWIDTH 611 0
DWIDTH 10 0
BBX 8 12 1 0
BITMAP
C0
C0
C0
DC
FE
E7
C3
C3
C3
E7
FE
DC
ENDCHAR
STARTCHAR c
ENCODING 99
SWIDTH 556 0
DWIDTH 9 0
BBX 7 9 1 0
BITMAP
7C
FE
C6
C0
C0
C0
C6
FE
7C
ENDCHAR
STARTCHAR d
ENCODING 100
SWIDTH 611 0
DWIDTH 10 0
BBX 9 12 0 0
BITMAP
0380
0380
0380
3F80
7F80
6380
6380
E380
6380
6380
7F80
3F80
ENDCHAR
STARTCHAR e
ENCODING 101
SWIDTH 556 0
DWIDTH 9 0
BBX 8 9 0 0
BITMAP
3C
7F
63
E3
FF
E0
63
7F
3C
ENDCHAR
STARTCHAR f
ENCODING 102
SWIDTH 333 0
DWIDTH 5 0
BBX 5 12 0 0
BITMAP
38
38
70
70
F8
70
70
70
70
70
70
70
ENDCHAR
STARTCHAR g
ENCODING 103
SWIDTH 611 0
DWIDTH 10 0
BBX 8 12 1 -3
BITMAP
3F
7F
C7
C7
C7
C7
C7
FF
7F
06
EE
7C
ENDCHAR
STARTCHAR h
ENCODING 104
SWIDTH 611 0
DWIDTH 10 0
BBX 8 12 1 0
BITMAP
C0
C0
C0
DE
FE
E7
C7
C7
C7
C7
C7
C7
ENDCHAR
STARTCHAR i
ENCODING 105
SWIDTH 278 0
DWIDTH 4 0
BBX 2 12 1 0
BITMAP
C0
C0
00
C0
C0
C0
C0
C0
C0
C0
C0
C0
ENDCHAR
STARTCHAR j
ENCODING 106
SWIDTH 278 0
DWIDTH 4 0
BBX 3 15 0 -3
BITMAP
60
60
00
60
60
60
60
60
60
60
60
60
60
E0
E0
ENDCHAR
STARTCHAR k
ENCODING 107
SWIDTH 556 0
DWIDTH 9 0
BBX 7 12 1 0
BITMAP
C0
C0
C0
C6
CC
D8
F8
F8
FC
CC
CE
C6
ENDCHAR
STARTCHAR l
ENCODING 108
SWIDTH 278 0
DWIDTH 4 0
BBX 2 12 1 0
BITMAP
C0
C0
C0
C0
C0
C0
C0
C0
C0
C0
C0
C0
ENDCHAR
STARTCHAR m
ENCODING 109
SWIDTH 889 0
DWIDTH 14 0
BBX 12 9 1 0
BITMAP
DCE0
FFF0
C730
C630
C630
C630
C630
C630
C630
ENDCHAR
STARTCHAR n
ENCODING 110
SWIDTH 611 0
DWIDTH 10 0
BBX 8 9 1 0
BITMAP
DE
FE
E7
C7
C7
C7
C7
C7
C7
ENDCHAR
STARTCHAR o
ENCODING 111
SWIDTH 611 0
DWIDTH 10 0
BBX 8 9 1 0
BITMAP
3C
FE
C7
C3
C3
C3
C7
FE
3C
ENDCHAR
STARTCHAR p
ENCODING 112
SWIDTH 611 0
DWIDTH 10 0
BBX 8 12 1 -3
BITMAP
DC
FE
E7
C3
C3
C3
E7
FE
DC
C0
C0
C0
ENDCHAR
STARTCHAR q
ENCODING 113
SWIDTH 611 0
DWIDTH 10 0
BBX 9 12 0 -3
BITMAP
3F80
7F80
6380
6380
E380
6380
6380
7F80
3F80
0380
0380
0380
ENDCHAR
STARTCHAR r
ENCODING 114
SWIDTH 389 0
DWIDTH 6 0
BBX 5 9 1 0
BITMAP
D8
F8
E0
C0
C0
C0
C0
C0
C0
ENDCHAR
STARTCHAR s
ENCODING 115
SWIDTH 556 0
DWIDTH 9 0
BBX 8 9 0 0
BITMAP
3E
7F
63
78
3F
07
E3
7F
3E
ENDCHAR
STARTCHAR t
ENCODING 116
SWIDTH 333 0
DWIDTH 5 0
BBX 5 11 0 0
BITMAP
70
70
F8
F8
70
70
70
70
70
78
38
ENDCHAR
STARTCHAR u
ENCODING 117
SWIDTH 611 0
DWIDTH 10 0
BBX 8 9 1 0
BITMAP
C7
C7
C7
C7
C7
C7
C7
FF
7F
ENDCHAR
STARTCHAR v
ENCODING 118
SWIDTH 556 0
DWIDTH 9 0
BBX 8 9 0 0
BITMAP
E3
63
63
76
36
36
3C
1C
1C
ENDCHAR
STARTCHAR w
ENCODING 119
SWIDTH 778 0
DWIDTH 12 0
BBX 12 9 0 0
BITMAP
C630
E730
6770
6F60
6D60
3D60
39C0
39C0
39C0
ENDCHAR
STARTCHAR x
ENCODING 120
SWIDTH 556 0
DWIDTH 9 0
BBX 7 9 1 0
BITMAP
C6
EE
6C
38
38
78
6C
EE
C6
ENDCHAR
STARTCHAR y
ENCODING 121
SWIDTH 556 0
DWIDTH 9 0
BBX 8 13 0 -4
BITMAP
E3
63
63
76
36
36
34
1C
1C
18
18
78
60
ENDCHAR
STARTCHAR z
ENCODING 122
SWIDTH 500 0
DWIDTH 8 0
BBX 7 9 0 0
BITMAP
7E
7E
0E
1C
38
30
70
FE
FE
ENDCHAR
STARTCHAR braceleft
ENCODING 123
SWIDTH 389 0
DWIDTH 6 0
BBX 4 15 1 -3
BITMAP
30
70
60
60
60
60
60
C0
60
60
60
60
60
70
30
ENDCHAR
STARTCHAR bar
ENCODING 124
SWIDTH 280 0
DWIDTH 4 0
BBX 1 15 2 -3
BITMAP
80
80
80
80
80
80
80
80
80
80
80
80
80
80
80
ENDCHAR
STARTCHAR braceright
ENCODING 125
SWIDTH 389 0
DWIDTH 6 0
BBX 5 15 1 -3
BITMAP
E0
E0
60
60
60
60
30
18
30
60
60
60
60
E0
E0
ENDCHAR
STARTCHAR asciitilde
ENCODING 126
SWIDTH 584 0
DWIDTH 9 0
BBX 7 3 1 4
BITMAP
62
DA
8E
ENDCHAR
ENDFONT
